<svg data-v-423bf9ae="" xmlns="http://www.w3.org/2000/svg" viewBox="0 0 737 105" class="iconLeftSlogan"><!----><defs data-v-423bf9ae=""><linearGradient data-v-423bf9ae="" gradientTransform="rotate(25)" id="6ab1c7c2-85e5-46ba-b4f2-819a7e526e7c" x1="0%" y1="0%" x2="100%" y2="0%"><stop data-v-423bf9ae="" offset="0%" style="stop-color: rgb(219, 36, 40); stop-opacity: 1;"></stop><stop data-v-423bf9ae="" offset="100%" style="stop-color: rgb(160, 153, 139); stop-opacity: 1;"></stop></linearGradient></defs><!----><g data-v-423bf9ae="" id="75ea19fe-6637-41e7-84f6-0ad4cb9c2171" fill="#ffffff" transform="matrix(4.464285536890945,0,0,4.464285536890945,111.5676429997236,-16.0714270302228)"><path d="M1.37 13.65L2.59 13.65L2.59 7.80C2.59 7.38 2.58 6.78 2.55 6.26C2.80 6.66 3.15 7.20 3.44 7.60L7.83 13.65L8.75 13.65L8.75 4.40L7.53 4.40L7.53 9.86C7.53 10.22 7.55 10.88 7.56 11.45C7.29 11.03 7.01 10.61 6.82 10.33L2.52 4.40L1.37 4.40ZM16.23 10.61L16.23 9.91C16.23 7.95 15.32 7.03 13.62 7.03C11.38 7.03 10.65 8.75 10.65 10.47C10.65 12.78 11.75 13.85 13.65 13.85C15.06 13.85 15.90 13.16 16.23 12.01L15.25 11.82C15.06 12.40 14.52 12.92 13.68 12.92C12.21 12.92 11.87 11.80 11.86 10.61ZM13.59 7.95C14.60 7.95 15.06 8.61 15.06 9.46L15.06 9.72L11.90 9.72C12.07 8.50 12.70 7.95 13.59 7.95ZM17.11 13.65L18.31 13.65L19.94 11.24L21.57 13.65L22.88 13.65L20.64 10.36L22.79 7.22L21.59 7.22L20.05 9.51L18.51 7.22L17.21 7.22L19.36 10.39ZM23.52 8.12L24.61 8.12L24.61 11.76C24.61 12.78 24.92 13.79 26.19 13.79C27.16 13.79 27.61 13.22 27.90 12.50L27.05 12.12C26.91 12.63 26.68 12.87 26.33 12.87C25.89 12.87 25.73 12.50 25.73 11.70L25.73 8.12L27.55 8.12L27.55 7.22L25.73 7.22L25.73 5.32L24.71 5.32L24.64 7.22L23.52 7.22ZM32.86 13.65L34.08 13.65L34.08 9.52L37.84 9.52L37.84 8.44L34.08 8.44L34.08 5.47L38.43 5.47L38.43 4.40L32.86 4.40ZM39.58 11.89C39.58 13.26 40.38 13.85 41.50 13.85C42.97 13.85 43.60 12.95 43.83 12.47L43.89 13.65L44.91 13.65L44.91 7.22L43.79 7.22L43.79 10.85C43.60 11.54 43.04 12.88 41.68 12.88C41.01 12.88 40.70 12.52 40.70 11.56L40.70 7.22L39.58 7.22ZM46.34 8.12L47.43 8.12L47.43 11.76C47.43 12.78 47.74 13.79 49.01 13.79C49.98 13.79 50.43 13.22 50.72 12.50L49.87 12.12C49.73 12.63 49.50 12.87 49.15 12.87C48.71 12.87 48.55 12.50 48.55 11.70L48.55 8.12L50.37 8.12L50.37 7.22L48.55 7.22L48.55 5.32L47.53 5.32L47.46 7.22L46.34 7.22ZM52.00 11.89C52.00 13.26 52.79 13.85 53.91 13.85C55.38 13.85 56.01 12.95 56.25 12.47L56.31 13.65L57.33 13.65L57.33 7.22L56.21 7.22L56.21 10.85C56.01 11.54 55.45 12.88 54.10 12.88C53.42 12.88 53.12 12.52 53.12 11.56L53.12 7.22L52.00 7.22ZM59.49 13.65L60.61 13.65L60.61 10.37C60.77 9.41 61.24 8.08 62.19 8.08C62.59 8.08 62.83 8.48 62.83 8.48L63.45 7.60C63.45 7.60 63.13 7.03 62.40 7.03C61.38 7.03 60.79 7.85 60.56 8.47L60.56 7.22L59.49 7.22ZM69.68 10.61L69.68 9.91C69.68 7.95 68.77 7.03 67.07 7.03C64.83 7.03 64.11 8.75 64.11 10.47C64.11 12.78 65.20 13.85 67.10 13.85C68.52 13.85 69.36 13.16 69.68 12.01L68.70 11.82C68.52 12.40 67.97 12.92 67.13 12.92C65.66 12.92 65.32 11.80 65.31 10.61ZM67.05 7.95C68.05 7.95 68.52 8.61 68.52 9.46L68.52 9.72L65.35 9.72C65.52 8.50 66.15 7.95 67.05 7.95ZM73.67 5.47L76.87 5.47L76.87 13.65L78.09 13.65L78.09 5.47L81.30 5.47L81.30 4.40L73.67 4.40ZM86.23 10.61L86.23 9.91C86.23 7.95 85.32 7.03 83.62 7.03C81.38 7.03 80.65 8.75 80.65 10.47C80.65 12.78 81.75 13.85 83.65 13.85C85.06 13.85 85.90 13.16 86.23 12.01L85.25 11.82C85.06 12.40 84.52 12.92 83.68 12.92C82.21 12.92 81.87 11.80 81.86 10.61ZM83.59 7.95C84.60 7.95 85.06 8.61 85.06 9.46L85.06 9.72L81.90 9.72C82.07 8.50 82.70 7.95 83.59 7.95ZM91.95 11.82C91.81 12.43 91.28 12.92 90.41 12.92C89.52 12.92 88.82 12.24 88.82 10.44C88.82 9.17 89.19 7.95 90.48 7.95C91.28 7.95 91.85 8.22 91.78 9.24L92.90 9.04C93.04 7.73 91.99 7.03 90.48 7.03C88.97 7.03 87.61 7.87 87.61 10.42C87.61 12.57 88.59 13.85 90.40 13.85C91.85 13.85 92.62 13.13 92.95 12.01ZM98.83 13.65L99.95 13.65L99.95 9.00C99.95 7.63 99.09 7.03 98.00 7.03C96.59 7.03 95.96 7.92 95.73 8.40L95.73 3.60L94.61 3.60L94.61 13.65L95.73 13.65L95.73 10.22C95.86 9.65 96.38 7.99 97.82 7.99C98.49 7.99 98.83 8.36 98.83 9.32ZM102.05 13.65L103.17 13.65L103.17 10.22C103.29 9.65 103.81 7.99 105.25 7.99C105.92 7.99 106.26 8.36 106.26 9.32L106.26 13.65L107.38 13.65L107.38 9.00C107.38 7.63 106.53 7.03 105.43 7.03C103.92 7.03 103.32 8.06 103.12 8.50L103.12 7.22L102.05 7.22ZM112.08 13.85C114.17 13.85 115.05 12.32 115.05 10.33C115.05 8.25 114.06 7.03 112.08 7.03C110.04 7.03 109.09 8.44 109.09 10.33C109.09 12.47 109.97 13.85 112.08 13.85ZM112.08 12.92C110.92 12.92 110.29 12.08 110.29 10.47C110.29 8.88 110.92 7.95 112.08 7.95C113.23 7.95 113.85 8.85 113.85 10.47C113.85 11.96 113.23 12.92 112.08 12.92ZM116.82 13.65L117.94 13.65L117.94 3.60L116.82 3.60ZM122.70 13.85C124.78 13.85 125.66 12.32 125.66 10.33C125.66 8.25 124.67 7.03 122.70 7.03C120.65 7.03 119.70 8.44 119.70 10.33C119.70 12.47 120.58 13.85 122.70 13.85ZM122.70 12.92C121.53 12.92 120.90 12.08 120.90 10.47C120.90 8.88 121.53 7.95 122.70 7.95C123.84 7.95 124.46 8.85 124.46 10.47C124.46 11.96 123.84 12.92 122.70 12.92ZM127.44 9.48C127.44 10.15 127.62 10.70 127.97 11.09C127.46 11.45 127.12 11.87 127.12 12.52C127.12 13.29 127.60 13.58 128.14 13.78C127.75 14.04 127.12 14.56 127.12 15.37C127.12 16.76 128.94 17.04 130.10 17.04C131.84 17.04 133.20 16.41 133.20 14.88C133.20 13.27 131.67 13.09 130.30 13.01C129.16 12.94 128.13 12.92 128.13 12.25C128.13 11.96 128.31 11.75 128.59 11.55C128.97 11.73 129.43 11.83 129.98 11.83C131.60 11.83 132.59 10.98 132.59 9.42C132.59 8.97 132.51 8.58 132.34 8.25C132.99 7.94 133.29 7.43 133.29 6.80C133.29 6.66 133.28 6.51 133.24 6.34L132.27 6.20L132.27 6.69C132.27 7.04 132.17 7.39 131.91 7.67C131.46 7.25 130.83 7.03 130.03 7.03C128.34 7.03 127.44 8.01 127.44 9.48ZM129.99 10.98C129.02 10.98 128.65 10.42 128.65 9.45C128.65 8.46 129.05 7.88 130.02 7.88C130.97 7.88 131.39 8.44 131.39 9.42C131.39 10.42 130.97 10.98 129.99 10.98ZM130.14 14.06C131.24 14.13 132.15 14.28 132.15 15.05C132.15 15.85 131.21 16.14 130.09 16.14C129.25 16.14 128.13 15.97 128.13 15.16C128.13 14.60 128.63 14.24 129.08 13.99C129.49 14.03 129.68 14.03 130.14 14.06ZM133.83 16.58C134.09 16.79 134.53 17.04 135.18 17.04C136.82 17.04 137.24 15.57 137.37 14.73L137.54 13.52L140.04 7.22L138.94 7.22L137.41 11.19C137.28 11.49 137.16 11.89 137.06 12.18C136.96 11.89 136.81 11.47 136.70 11.19L135.06 7.22L133.84 7.22L136.53 13.52L136.40 14.50C136.28 15.57 135.74 16.11 135.21 16.11C134.89 16.11 134.58 15.96 134.36 15.75Z"></path></g><!----><g data-v-423bf9ae="" id="a0329367-597a-4fe0-b13d-7afa8a057e0a" transform="matrix(1.078325907389323,0,0,1.078325907389323,-4.212986392558385,-1.4364976117931363)" stroke="none" fill="#ffffff"><switch><g><path d="M28.531 55.812l-2.401-2.736c-2.936-3.343-5.875-6.684-8.802-10.035-.213-.244-.404-.291-.709-.232-2.965.574-5.932 1.132-8.899 1.694l-2.697.511c-.075.014-.153.019-.255.03v-.647l12.176-2.309c.221-1.048.437-2.057.647-3.068.693-3.328 1.378-6.657 2.083-9.982.064-.303.008-.465-.235-.654-4.634-3.612-9.259-7.234-13.887-10.854-.206-.161-.406-.331-.62-.482a.41.41 0 0 1-.191-.396c.011-.177.003-.355.003-.619.188.142.31.231.429.324L19.708 27.72c.041.032.088.06.123.098.257.285.57.293.929.247 1.479-.188 2.961-.35 4.442-.522 1.494-.173 2.988-.348 4.482-.52l4.405-.505 2.511-.293c.015-.119.035-.219.039-.32.037-1.072.074-2.145.107-3.217.058-1.91.106-3.82.177-5.729.011-.301-.085-.466-.33-.634A8168.418 8168.418 0 0 1 21.087 5.697a1.22 1.22 0 0 0-.722-.236c-5.078-.04-10.155-.09-15.232-.139-.115-.001-.23-.012-.366-.019v-.651c5.213.046 10.426.09 15.681.135l-.793-3.32h.686l.56 2.322c.064.267.132.533.185.802a.734.734 0 0 0 .34.493c1.408.954 2.809 1.918 4.212 2.879 3.799 2.602 7.6 5.202 11.394 7.811.24.165.471.237.761.218 2.376-.154 4.753-.299 7.13-.444 1.828-.112 3.657-.219 5.485-.329.103-.006.205-.016.35-.027-.02-.169-.027-.321-.059-.468-.286-1.333-.734-2.617-1.201-3.894-.35-.958-.729-1.905-1.084-2.86a.876.876 0 0 0-.421-.483c-3.366-1.912-6.728-3.831-10.09-5.749-.123-.07-.245-.143-.4-.234.185-.117.354-.053.511-.072.542-.064 1.007.103 1.479.376 2.945 1.699 5.905 3.372 8.857 5.06.235.135.47.196.74.201 2.421.046 4.841.101 7.261.154.127.003.255 0 .4-.036-1.118-.985-2.273-1.911-3.418-2.85-1.142-.936-2.287-1.869-3.493-2.855.16-.023.25-.047.341-.048.694-.003 1.387-.011 2.081.005.189.004.391.055.561.139 2.145 1.06 4.303 2.094 6.422 3.203 5.492 2.876 10.929 5.854 16.214 9.099 2.596 1.594 5.186 3.206 7.603 5.071 2.255 1.739 4.376 3.619 6.189 5.827 1.084 1.32 2.024 2.732 2.684 4.317.298.715.513 1.453.657 2.214.026.138.069.28.139.401 1.119 1.936 1.805 4.027 2.215 6.214.374 1.992.468 4.001.301 6.019a25.17 25.17 0 0 1-1.537 6.828c-.202.535-.252 1.093-.361 1.643-.42 2.122-1.07 4.178-1.803 6.208-.382 1.057-.81 2.098-1.204 3.151-.346.923-.807 1.78-1.342 2.608-5.105 7.901-10.055 15.898-14.951 23.929-.66 1.082-1.42 2.103-2.142 3.146-1.542 2.227-3.094 4.446-4.628 6.677-.19.277-.384.41-.729.291-.011-.159.125-.26.207-.378 2.129-3.077 4.281-6.138 6.386-9.232.853-1.253 1.611-2.571 2.404-3.865 1.681-2.744 3.357-5.491 5.035-8.237.073-.119.139-.242.245-.427-.158.059-.253.086-.342.128-.98.466-1.961.93-2.934 1.409a1.137 1.137 0 0 0-.409.345c-3.483 4.908-6.96 9.821-10.435 14.734-.098.138-.177.29-.252.442-.766 1.562-1.528 3.125-2.292 4.687-.068.14-.141.277-.212.418h-.513c.767-1.633 1.567-3.208 2.358-4.873-.159.059-.252.086-.337.127-2.023.982-4.043 1.969-6.068 2.947a1.075 1.075 0 0 0-.455.41c-.294.464-.6.92-.905 1.384h-.563c.099-.158.172-.276.248-.393.228-.351.441-.713.692-1.048.252-.337.369-.702.411-1.117.183-1.848.38-3.695.576-5.542.168-1.587.343-3.173.514-4.759.01-.09.012-.181.02-.318-.132.052-.236.085-.334.132-3.721 1.763-7.442 3.529-11.165 5.287a.918.918 0 0 0-.43.429c-1.262 2.336-2.529 4.67-3.794 7.004-.209.385-.21.385-.697.294.066-.133.126-.26.192-.384 1.276-2.358 2.546-4.72 3.836-7.07.188-.343.234-.673.194-1.049-.152-1.434-.428-2.846-.771-4.243-.579-2.361-1.203-4.711-1.81-7.066-.029-.111-.074-.218-.122-.354-.126.044-.235.075-.339.12-4.48 1.956-8.959 3.915-13.443 5.863-.241.105-.366.263-.471.483-2.134 4.444-4.272 8.887-6.409 13.329-.062.129-.126.257-.195.397h-.534c.079-.174.14-.316.207-.455 2.149-4.48 4.297-8.962 6.455-13.438.127-.264.126-.459-.013-.721-2.275-4.271-4.537-8.549-6.803-12.825-.067-.126-.139-.25-.231-.414L4.76 76.999v-.662c.313-.112.618-.224.925-.33 5.705-1.976 11.41-3.953 17.119-5.918.316-.109.481-.28.596-.589 1.659-4.446 3.33-8.888 4.999-13.331l.132-.357zM49.86 38.195c-.091-.083-.147-.137-.206-.188-4.203-3.641-8.408-7.282-12.608-10.927a.665.665 0 0 0-.567-.175c-1.35.164-2.702.317-4.053.472-1.923.22-3.846.437-5.769.658-1.988.228-3.975.461-5.963.69-.353.041-.356.036-.428.379-.889 4.235-1.774 8.47-2.676 12.702-.069.322-.001.526.209.765 3.66 4.153 7.311 8.313 10.964 12.472.077.087.159.17.248.264.133-.035.259-.065.383-.1 4.835-1.39 9.669-2.787 14.509-4.158.448-.127.684-.326.854-.767 1.525-3.939 3.233-7.802 4.926-11.671.059-.133.113-.265.177-.416zM30.943 83.702c.128-.052.213-.083.296-.119 4.517-1.97 9.033-3.941 13.552-5.905a.883.883 0 0 0 .458-.446c2.294-4.438 4.593-8.873 6.89-13.309.186-.359.369-.72.562-1.097l-8.134-11.312c-.129.031-.23.051-.33.08-4.935 1.422-9.869 2.846-14.806 4.259-.27.077-.411.204-.509.464a4229.046 4229.046 0 0 1-5.047 13.396c-.106.28-.098.498.043.765 2.273 4.272 4.536 8.549 6.802 12.824.067.126.139.249.223.4zm17.367 6.377c.155-.065.263-.105.367-.154 3.72-1.761 7.44-3.524 11.162-5.281.198-.093.343-.216.459-.401 2.965-4.7 5.933-9.399 8.906-14.094a.818.818 0 0 0 .128-.626c-.441-2.43-.857-4.865-1.321-7.291-.211-1.102-.509-2.188-.776-3.279-.051-.209-.147-.407-.225-.619-.374.141-.7.274-1.032.386a4487.73 4487.73 0 0 1-12.373 4.148c-.281.094-.457.234-.594.5a4307.666 4307.666 0 0 1-7.266 13.992c-.153.293-.159.54-.078.85.625 2.375 1.253 4.75 1.835 7.136.375 1.536.673 3.09.808 4.733zm-10.75-73.41c-.027.734-.056 1.413-.077 2.092-.064 2.092-.124 4.184-.187 6.277-.011.353-.024.706-.046 1.059-.01.159.04.27.163.372.303.249.596.511.892.768 3.937 3.408 7.875 6.814 11.807 10.227.188.163.347.206.594.142 3.957-1.031 7.917-2.053 11.878-3.068.222-.057.332-.169.387-.378.158-.593.343-1.18.483-1.777.443-1.885.746-3.796 1.024-5.71.08-.553.144-1.109.214-1.656-.16-.11-.288-.201-.418-.287l-6.366-4.244-6.66-4.439c-.152-.101-.293-.198-.499-.185-1.305.087-2.611.161-3.917.24l-7.56.457c-.557.031-1.115.07-1.712.11zm15.66 45.675c.097-.029.159-.046.221-.066 2.322-.76 4.648-1.507 6.963-2.286 2.08-.699 4.148-1.436 6.223-2.15.266-.091.424-.247.543-.508 1.645-3.603 3.303-7.2 4.957-10.799.059-.129.115-.26.182-.411l-9.401-11.017c-.141.032-.255.054-.368.083l-6.034 1.559c-1.91.494-3.819.992-5.73 1.479-.247.063-.406.171-.502.422-.178.463-.401.908-.595 1.366-1.496 3.54-2.986 7.081-4.488 10.618-.118.277-.076.47.097.71 2.566 3.552 5.122 7.111 7.681 10.667.074.105.155.207.251.333zm6.108 33.686c.172-.076.303-.128.429-.189 2.034-.988 4.066-1.979 6.103-2.961.279-.134.494-.308.675-.566 3.218-4.565 6.433-9.133 9.681-13.676.591-.827 1.017-1.691 1.237-2.675.62-2.767 1.252-5.532 1.876-8.298.082-.364.146-.732.229-1.147-.168.055-.278.087-.386.127-3.025 1.125-6.049 2.252-9.076 3.371a.878.878 0 0 0-.463.388c-.94 1.495-1.886 2.986-2.83 4.477-2.021 3.194-4.044 6.387-6.061 9.584-.109.172-.215.371-.238.567-.173 1.481-.325 2.964-.484 4.446-.179 1.664-.359 3.328-.537 4.993-.053.502-.1 1.006-.155 1.559zm13.499-50.421c.082-.02.133-.028.181-.044 3.696-1.226 7.391-2.454 11.088-3.674.218-.072.307-.18.342-.407.245-1.576.506-3.149.76-4.724.213-1.316.422-2.633.638-3.949.038-.232.016-.408-.181-.588a2917.215 2917.215 0 0 1-9.179-8.401c-.179-.165-.359-.243-.596-.223-.547.047-1.097.068-1.641.136-1.258.158-2.516.322-3.77.511-1.642.248-3.279.524-4.919.78-.195.03-.252.121-.279.304-.202 1.384-.398 2.77-.629 4.149-.269 1.599-.58 3.191-1.099 4.731-.097.286-.057.469.138.696 2.217 2.58 4.422 5.17 6.631 7.758.831.975 1.664 1.95 2.515 2.945zM49.101 7.756c.056.158.098.279.143.398.407 1.104.829 2.203 1.216 3.313.396 1.135.784 2.277.939 3.477.035.272.148.434.376.585 4.229 2.806 8.452 5.621 12.676 8.433.734.489.733.48 1.584.339 3.199-.528 6.394-1.086 9.63-1.353.096-.008.189-.038.312-.064-.147-.431-.275-.828-.419-1.22-.427-1.169-.921-2.307-1.604-3.355a5.313 5.313 0 0 0-1.793-1.718c-4.498-2.644-8.985-5.308-13.473-7.969a7.683 7.683 0 0 1-.772-.534.734.734 0 0 0-.464-.166c-2.656-.052-5.311-.11-7.967-.166-.115-.003-.23 0-.384 0zm35.291 34.688c-.109.029-.197.047-.282.076-3.658 1.214-7.315 2.429-10.974 3.639a.631.631 0 0 0-.413.371c-.737 1.618-1.485 3.23-2.23 4.845-.942 2.042-1.879 4.085-2.83 6.123-.103.222-.1.402-.022.628.173.506.329 1.02.454 1.54.684 2.835 1.172 5.709 1.654 8.583l.195 1.169c.128-.04.215-.062.298-.093 3.099-1.15 6.196-2.303 9.297-3.448a.768.768 0 0 0 .422-.375c2.412-4.179 4.826-8.356 7.246-12.53a.722.722 0 0 0 .073-.625c-.929-3.187-1.847-6.376-2.769-9.565-.032-.11-.076-.216-.119-.338zm8.493 9.275c-.146.031-.196.04-.246.053-1.404.364-2.807.73-4.212 1.09-.197.05-.4.073-.615.112-.011.016-.036.047-.056.081-2.478 4.277-4.955 8.554-7.429 12.833a1.4 1.4 0 0 0-.149.399c-.184.856-.354 1.715-.539 2.571-.582 2.695-1.144 5.395-1.911 8.046-.015.052-.01.111-.017.199.168-.076.299-.133.428-.194.979-.466 1.956-.938 2.939-1.396.247-.115.424-.273.571-.506 2.098-3.315 4.181-6.64 6.321-9.928.948-1.456 1.749-2.969 2.321-4.606.073-.21.159-.415.236-.623.831-2.23 1.602-4.48 2.111-6.81.091-.42.158-.842.247-1.321zm-4.905.627c1.621-.422 3.186-.836 4.756-1.233.233-.059.346-.168.425-.389 1.336-3.714 1.871-7.519 1.333-11.452-.293-2.139-.875-4.191-1.823-6.135-.171-.351-.368-.689-.561-1.05-1.89.155-3.761.291-5.623.477-.06.347-.114.642-.162.939-.431 2.657-.857 5.314-1.296 7.97-.046.28-.038.537.041.808.802 2.76 1.598 5.521 2.395 8.282l.515 1.783zM73.78 16.87a10.384 10.384 0 0 1 1.461 2.221 21.792 21.792 0 0 1 1.398 3.617c.074.25.192.442.383.616 3.045 2.778 6.086 5.559 9.122 8.346.18.165.351.227.594.206 1.433-.127 2.867-.238 4.301-.357.282-.023.562-.055.841-.083.006-.073.016-.113.01-.15-.012-.077-.031-.153-.05-.23-.298-1.247-.836-2.39-1.502-3.478-.948-1.549-2.11-2.927-3.384-4.213-2.414-2.437-5.116-4.515-7.986-6.384-.166-.108-.332-.131-.518-.131-1.426.002-2.852.001-4.278.002-.101 0-.203.009-.392.018zm3.716-.703l.021-.079c-.115-.082-.227-.169-.346-.245-.782-.5-1.555-1.014-2.349-1.495-5.56-3.364-11.243-6.508-17.011-9.499-1.959-1.016-3.962-1.948-5.946-2.916-.116-.056-.239-.097-.359-.145a.308.308 0 0 0 .118.19c2.304 1.893 4.608 3.786 6.913 5.677.101.082.21.156.322.222 4.591 2.714 9.182 5.427 13.771 8.143.176.104.351.15.554.149 1.164-.006 2.328-.003 3.492-.003l.82.001z"></path><path d="M77.496 16.167h-.819c-1.164 0-2.328-.003-3.492.003a1.032 1.032 0 0 1-.554-.149c-4.589-2.717-9.181-5.429-13.771-8.143a2.555 2.555 0 0 1-.322-.222c-2.305-1.891-4.609-3.784-6.913-5.677a.308.308 0 0 1-.118-.19c.12.048.243.088.359.145 1.984.968 3.987 1.9 5.946 2.916 5.768 2.991 11.451 6.135 17.011 9.499.794.48 1.567.994 2.349 1.495.119.076.231.163.346.245a1.454 1.454 0 0 0-.022.078zM47.606 37.317l1.061.918c-.067.55-.165 1.067-.392 1.563-.402.878-.773 1.77-1.159 2.656-.05.115-.108.226-.201.329-.037-1.831.234-3.618.691-5.466zM67.19 62.207l.842 4.456c-.525.18-3.945-.551-5.756-1.248-1.848-.71-3.597-1.596-5.288-2.775.384-.128.715-.204 1.014-.346.416-.197.737-.119 1.105.147.828.598 1.74 1.057 2.681 1.455.132.056.268.117.407.136.086.012.216-.021.268-.083.423-.507.941-.904 1.46-1.3.05-.038.088-.091.148-.153l-1.086-1.853 1.209-.418.245.397c.149.246.315.483.443.74.201.404.535.59.96.651.427.063.853.123 1.348.194zM48.38 34.856c2.157-5.461 5.799-9.596 10.939-12.446l1.32.88c-.126.074-.208.128-.295.173-.511.263-1.021.529-1.536.784-.884.438-1.673 1.02-2.453 1.615-.196.15-.378.324-.544.507-.108.12-.174.277-.296.478.171.011.269.034.362.021.84-.123 1.68-.248 2.519-.382.943-.15 1.885-.307 2.845-.281a1.41 1.41 0 0 0 1.034-.383c.309-.279.655-.516.969-.76.046.016.06.019.071.026.597.369.523.228.432.882-.156 1.126-.342 2.248-.517 3.371-.022.138-.056.274-.098.479-.103-.163-.172-.269-.239-.377-.347-.554-.7-1.104-1.036-1.665-.138-.229-.321-.31-.581-.316a15.52 15.52 0 0 0-3.395.264c-.589.116-1.178.239-1.762.377-.143.034-.307.11-.397.22-1.237 1.507-2.472 3.017-3.41 4.737a43.057 43.057 0 0 0-1.073 2.137c-.207.436-.397.881-.446 1.373-.02.202-.129.243-.294.133-.076-.05-.141-.117-.21-.177-.544-.471-1.088-.941-1.631-1.413-.089-.078-.173-.16-.278-.257zM52.881 41.59c2.644-.632 5.255-1.222 7.953-1.417.272-.697.522-1.397.817-2.077.291-.67.628-1.32.98-2.052l.893 1.046c-.332.747-.658 1.459-.965 2.179-.149.348-.267.709-.393 1.066-.087.248-.058.465.099.698 1.612 2.399 3.214 4.805 4.809 7.215.129.195.279.29.502.307.73.057 1.46.119 2.19.178.127.01.253.015.434.026l-.547 1.194-1.571-.067c-.3-.013-.641-.117-.89-.01-.246.106-.409.42-.593.654a2795.406 2795.406 0 0 0-4.004 5.088c-.477.607-.476.609-.144 1.299.198.412.401.822.601 1.234.005.011.003.026.01.08l-1.187.411c-.068-.124-.134-.232-.19-.345-.245-.492-.497-.98-.725-1.479-.125-.274-.307-.406-.606-.472-.739-.163-1.482-.327-2.198-.568-1.716-.579-3.281-1.429-4.591-2.706-.092-.09-.199-.165-.339-.279l-2.297 1.222c.147.594 1.145 2.094 2.316 3.519a16.88 16.88 0 0 0 3.099 2.936c-.511.166-.944.324-1.389.436-.099.025-.26-.089-.357-.177a22.791 22.791 0 0 1-2.964-3.237 23.405 23.405 0 0 1-4.304-9.535.847.847 0 0 1 .025-.453c.228-.584.48-1.159.725-1.737.018-.042.054-.076.116-.16.097.578.175 1.102.273 1.622.29 1.531.67 3.038 1.263 4.483.158.385.308.778.61 1.122l2.149-1.104c-.074-.352-.134-.684-.216-1.011-.259-1.027-.515-2.053-.616-3.112a16.082 16.082 0 0 1-.009-2.861c.052-.625.125-1.249.212-1.871.037-.264-.024-.487-.142-.713a103.53 103.53 0 0 1-.945-1.848c-.068-.136-.159-.311-.124-.436.08-.286.196-.578.367-.817.086-.119.327-.126.537-.197l1.326 2.726zM66.052 25.771c1.077-.174 2.107-.35 3.14-.504 1.552-.23 3.105-.449 4.659-.661.583-.079 1.17-.124 1.755-.188a.537.537 0 0 1 .463.141c.969.899 1.946 1.788 2.92 2.681.038.035.068.077.114.129-.07.113-.137.223-.206.332a24.596 24.596 0 0 0-2.002 3.817c-.532 1.291-.432 1.12.124 2.107.559.991 1.162 1.956 1.742 2.935.653 1.104 1.268 2.228 1.734 3.425.073.186.182.264.367.295.863.145 1.725.298 2.587.448l.26.045-.068.398-5.388 1.788c.085-.188.141-.301.188-.417.223-.557.452-1.112.663-1.674.121-.321.084-.634-.076-.946-.602-1.175-1.166-2.371-1.795-3.531-.516-.951-1.106-1.862-1.66-2.793-.107-.18-.236-.288-.463-.299-1.633-.08-3.264-.21-4.897-.248-1.452-.034-2.901.094-4.343.282-.21.027-.32.114-.42.287-.226.394-.473.777-.74 1.209l-.356-.408c.848-2.823 1.27-5.719 1.698-8.65zM66.429 23.284l3.449-1.299v-1.108c-.427 0-.828-.023-1.225.004-1.071.073-2.134.213-3.164.524-.662.2-1.315.428-1.964.667-.209.077-.361.066-.54-.064-.345-.25-.706-.478-1.113-.751.152-.067.241-.111.333-.145 3.132-1.154 6.362-1.657 9.698-1.439.586.038 1.17.116 1.756.161.181.014.284.085.354.249.131.31.275.614.444.989-1.177-.158-2.285-.294-3.444-.208v1.144l1.198.431-.014.056-5.75.889-.018-.1zM69.51 62.236c.419-.02.795-.039 1.172-.055 1.282-.053 2.558-.165 3.821-.401.116-.022.229-.054.345-.072.71-.113 1.218-.465 1.63-1.084.869-1.307 1.764-2.595 2.476-3.999.059-.117.121-.232.18-.348a.746.746 0 0 0-.022-.749c-.059-.102-.111-.209-.179-.304-1.181-1.664-2.368-3.324-3.544-4.991-.176-.25-.373-.349-.686-.326-.743.054-1.49.069-2.235.098-.125.005-.251.001-.44.001.195-.421.353-.791.541-1.146.042-.079.183-.137.284-.146a13.58 13.58 0 0 1 1.176-.062c.436-.001.732-.201.977-.549a94.557 94.557 0 0 1 1.528-2.088.608.608 0 0 1 .274-.2c2.328-.781 4.659-1.555 7.021-2.341.046.117.095.218.126.324.814 2.813 1.623 5.627 2.446 8.437a.718.718 0 0 1-.092.658 3.87 3.87 0 0 0-.313.544c-.191.428-.516.701-.924.914-1.302.681-2.637 1.273-4.086 1.562-.287.057-.416.231-.52.471-.446 1.034-.949 2.042-1.561 2.987-.525.811-1.1 1.589-1.652 2.383-.118.17-.231.343-.367.546.544.542 1.072 1.067 1.598 1.593.148.148.312.107.473.042.388-.155.772-.317 1.208-.498-.044.106-.068.183-.107.252-.226.398-.461.791-.683 1.192a.68.68 0 0 1-.368.325c-1.61.63-3.24 1.183-4.966 1.408-1.207.158-2.415.278-3.679.262l-.852-4.64zM82.728 63.378c.152-.266.306-.518.442-.779.492-.944 1.106-1.757 1.962-2.44 1.909-1.525 3.323-3.499 4.669-5.516.18-.27.315-.571.463-.862.04-.079.054-.171.082-.268l-.283-.224 1.759-.462c-.07.473-.15.898-.357 1.295a23.686 23.686 0 0 1-4.162 5.718 23.52 23.52 0 0 1-4.205 3.388 5.626 5.626 0 0 1-.268.163c-.015.009-.044-.005-.102-.013zM88.571 33.199l3.074-.254c.088.165.173.311.247.462.962 1.954 1.547 4.019 1.817 6.176.447 3.57-.001 7.039-1.164 10.43-.093.272-.223.426-.551.407.01-.061.012-.121.031-.175.396-1.102.603-2.246.712-3.407.115-1.236.23-2.474.283-3.714a16.542 16.542 0 0 0-.417-4.478c-.018-.076-.044-.151-.059-.227-.08-.421-.339-.629-.76-.653-.274-.016-.547-.041-.847-.064-.059.085-.132.176-.19.275-.197.339-.4.675-.58 1.024-.49.949-1.082 1.822-1.887 2.534-.211.186-.268.363-.183.647.524 1.754.734 3.561.743 5.382.005.976-.131 1.954-.205 2.93-.01.13-.049.26-.042.389.007.127.056.251.096.417-.037.043-.113.072-.168-.05-.043-.094-.064-.198-.093-.299-.831-2.874-1.655-5.751-2.498-8.622-.124-.423-.112-.818.023-1.264.185.024.375.042.561.075.217.039.38-.033.516-.2.585-.721 1.186-1.43 1.753-2.164.334-.433.63-.898.918-1.364.262-.423.295-.86.096-1.344-.385-.939-.637-1.933-1.226-2.869zM76.745 20.447c5.912 1.734 10.448 5.138 13.79 10.276-.347.035-.614.064-.881.087-.69.06-1.381.11-2.07.181-.226.023-.348-.057-.477-.238-.477-.67-.976-1.325-1.47-1.983-.086-.114-.196-.21-.288-.321-.67-.813-1.581-1.113-2.585-1.223-.124-.014-.275-.029-.361-.104-.462-.4-.908-.82-1.346-1.272 1.02-.045 2.011.153 2.991.283.035-.042.058-.059.066-.081.155-.411.075-.702-.304-.999-1.708-1.337-3.609-2.297-5.646-3.009-.234-.082-.468-.17-.708-.229-.204-.05-.302-.163-.359-.36-.091-.312-.212-.614-.352-1.008z"></path></g></switch></g><!----><g data-v-423bf9ae="" id="491279fb-d0b1-490e-908c-8723b4827719" fill="#ffffff" transform="matrix(1.0627225987220985,0,0,1.0627225987220985,117.23737200954147,55.97228145957479)"><path d="M8.22 3.92L8.02 3.92L0.73 3.92L0.52 3.92L0.42 3.92L0.42 5.96L0.77 5.96C0.97 5.96 1.05 5.85 1.06 5.63C1.06 5.53 1.09 5.17 1.12 4.52L4.02 4.52L4.02 13.26C3.85 13.26 3.71 13.27 3.57 13.27C3.43 13.27 3.32 13.29 3.25 13.29L3.12 13.29C2.94 13.30 2.84 13.38 2.84 13.54L2.84 13.82L4.02 13.82L4.73 13.82L5.92 13.82L5.92 13.54C5.92 13.38 5.82 13.30 5.64 13.29L5.50 13.29C5.43 13.29 5.33 13.27 5.19 13.27C5.05 13.27 4.90 13.26 4.73 13.26L4.73 4.52L7.62 4.52C7.66 5.24 7.67 5.60 7.67 5.63C7.69 5.85 7.78 5.96 7.98 5.96L8.32 5.96L8.32 3.92ZM26.15 4.44C26.33 4.42 26.43 4.34 26.43 4.19L26.43 3.92L25.26 3.92L24.53 3.92L23.35 3.92L23.35 4.19C23.35 4.34 23.45 4.42 23.63 4.44L23.76 4.44C23.83 4.44 23.94 4.45 24.08 4.45C24.22 4.45 24.36 4.47 24.53 4.47L24.53 8.53L18.33 8.53L18.33 4.47C18.49 4.47 18.65 4.45 18.79 4.45C18.93 4.45 19.03 4.44 19.10 4.44L19.24 4.44C19.42 4.42 19.50 4.34 19.50 4.19L19.50 3.92L18.33 3.92L17.61 3.92L16.42 3.92L16.42 4.19C16.42 4.34 16.52 4.42 16.70 4.44L16.84 4.44C16.91 4.44 17.01 4.45 17.15 4.45C17.29 4.45 17.44 4.47 17.61 4.47L17.61 13.26C17.44 13.26 17.29 13.27 17.15 13.27C17.01 13.27 16.91 13.29 16.84 13.29L16.70 13.29C16.52 13.30 16.42 13.38 16.42 13.54L16.42 13.82L17.61 13.82L18.33 13.82L19.50 13.82L19.50 13.54C19.50 13.38 19.42 13.30 19.24 13.29L19.10 13.29C19.03 13.29 18.93 13.27 18.79 13.27C18.65 13.27 18.49 13.26 18.33 13.26L18.33 9.07L24.53 9.07L24.53 13.26C24.36 13.26 24.22 13.27 24.08 13.27C23.94 13.27 23.83 13.29 23.76 13.29L23.63 13.29C23.45 13.30 23.35 13.38 23.35 13.54L23.35 13.82L24.53 13.82L25.26 13.82L26.43 13.82L26.43 13.54C26.43 13.38 26.33 13.30 26.15 13.29L26.03 13.29C25.96 13.29 25.84 13.27 25.70 13.27C25.56 13.27 25.42 13.26 25.26 13.26L25.26 4.47C25.42 4.47 25.56 4.45 25.70 4.45C25.84 4.45 25.96 4.44 26.03 4.44ZM35.97 3.92L34.78 3.92L34.78 4.19C34.78 4.34 34.87 4.42 35.06 4.44L35.20 4.44C35.27 4.44 35.36 4.45 35.50 4.45C35.64 4.45 35.80 4.47 35.97 4.47L35.97 13.26C35.80 13.26 35.64 13.27 35.50 13.27C35.36 13.27 35.27 13.29 35.20 13.29L35.06 13.29C34.87 13.30 34.79 13.38 34.79 13.54L34.79 13.82L35.97 13.82L41.90 13.82L41.90 13.22L41.90 11.76L41.55 11.76C41.36 11.76 41.27 11.89 41.26 12.11C41.26 12.14 41.24 12.19 41.24 12.29C41.24 12.39 41.24 12.53 41.23 12.74C41.22 12.95 41.20 13.09 41.20 13.22L36.68 13.22L36.68 9.09L40.63 9.09L40.63 8.51L36.68 8.51L36.68 4.51L41.20 4.51C41.23 5.12 41.26 5.50 41.26 5.63C41.27 5.85 41.36 5.96 41.55 5.96L41.90 5.96L41.90 4.51L41.90 3.92ZM67.98 3.92L67.63 3.92L62.05 3.92L60.86 3.92L60.86 4.19C60.86 4.34 60.96 4.42 61.14 4.44L61.28 4.44C61.35 4.44 61.45 4.45 61.59 4.45C61.73 4.45 61.88 4.47 62.05 4.47L62.05 13.26C61.88 13.26 61.73 13.27 61.59 13.27C61.45 13.27 61.35 13.29 61.28 13.29L61.14 13.29C60.96 13.30 60.86 13.38 60.86 13.54L60.86 13.82L62.05 13.82L62.76 13.82L63.94 13.82L63.94 13.54C63.94 13.38 63.85 13.30 63.67 13.29L63.53 13.29C63.46 13.29 63.36 13.27 63.22 13.27C63.08 13.27 62.93 13.26 62.76 13.26L62.76 9.27L66.46 9.27L66.46 8.67L62.76 8.67L62.76 4.51L67.37 4.51C67.40 5.18 67.42 5.56 67.42 5.63C67.44 5.85 67.54 5.96 67.73 5.96L68.07 5.96L68.07 3.92ZM84.50 3.92L83.79 3.92L82.43 3.92L82.43 4.19C82.43 4.34 82.53 4.42 82.71 4.44L82.88 4.44C82.98 4.44 83.12 4.45 83.29 4.45C83.45 4.45 83.62 4.47 83.79 4.47L83.79 10.04C83.79 10.50 83.72 10.92 83.58 11.33C83.44 11.73 83.24 12.08 82.98 12.38C82.71 12.67 82.40 12.89 82.03 13.06C81.65 13.23 81.23 13.31 80.75 13.31C80.28 13.31 79.84 13.23 79.46 13.06C79.09 12.89 78.76 12.66 78.51 12.36C78.25 12.07 78.06 11.72 77.92 11.33C77.78 10.93 77.71 10.50 77.71 10.04L77.71 4.47C77.88 4.47 78.05 4.45 78.22 4.45C78.39 4.45 78.53 4.44 78.62 4.44L78.79 4.44C78.97 4.42 79.07 4.34 79.07 4.19L79.07 3.92L77.71 3.92L77 3.92L75.82 3.92L75.82 4.19C75.82 4.34 75.91 4.42 76.09 4.44L76.23 4.44C76.30 4.44 76.40 4.45 76.54 4.45C76.68 4.45 76.83 4.47 77 4.47L77 10.04C77 10.58 77.08 11.09 77.25 11.56C77.42 12.04 77.67 12.46 77.99 12.81C78.32 13.16 78.72 13.44 79.18 13.64C79.65 13.83 80.18 13.93 80.75 13.93C81.33 13.93 81.84 13.83 82.31 13.64C82.77 13.44 83.17 13.16 83.50 12.81C83.82 12.46 84.07 12.04 84.24 11.56C84.41 11.09 84.50 10.58 84.50 10.04L84.50 4.47C84.67 4.47 84.81 4.45 84.95 4.45C85.09 4.45 85.20 4.44 85.27 4.44L85.40 4.44C85.58 4.42 85.68 4.34 85.68 4.19L85.68 3.92ZM101.22 3.92L101.02 3.92L93.73 3.92L93.52 3.92L93.42 3.92L93.42 5.96L93.77 5.96C93.97 5.96 94.05 5.85 94.07 5.63C94.07 5.53 94.09 5.17 94.12 4.52L97.02 4.52L97.02 13.26C96.85 13.26 96.71 13.27 96.57 13.27C96.43 13.27 96.32 13.29 96.25 13.29L96.12 13.29C95.94 13.30 95.84 13.38 95.84 13.54L95.84 13.82L97.02 13.82L97.73 13.82L98.92 13.82L98.92 13.54C98.92 13.38 98.83 13.30 98.64 13.29L98.50 13.29C98.43 13.29 98.34 13.27 98.20 13.27C98.06 13.27 97.90 13.26 97.73 13.26L97.73 4.52L100.62 4.52C100.66 5.24 100.67 5.60 100.67 5.63C100.69 5.85 100.79 5.96 100.98 5.96L101.32 5.96L101.32 3.92ZM117.74 3.92L117.03 3.92L115.67 3.92L115.67 4.19C115.67 4.34 115.77 4.42 115.95 4.44L116.12 4.44C116.21 4.44 116.35 4.45 116.52 4.45C116.69 4.45 116.86 4.47 117.03 4.47L117.03 10.04C117.03 10.50 116.96 10.92 116.82 11.33C116.68 11.73 116.48 12.08 116.21 12.38C115.95 12.67 115.64 12.89 115.26 13.06C114.88 13.23 114.46 13.31 113.99 13.31C113.51 13.31 113.08 13.23 112.70 13.06C112.32 12.89 112.00 12.66 111.75 12.36C111.48 12.07 111.30 11.72 111.16 11.33C111.02 10.93 110.95 10.50 110.95 10.04L110.95 4.47C111.12 4.47 111.29 4.45 111.45 4.45C111.62 4.45 111.76 4.44 111.86 4.44L112.03 4.44C112.21 4.42 112.31 4.34 112.31 4.19L112.31 3.92L110.95 3.92L110.24 3.92L109.06 3.92L109.06 4.19C109.06 4.34 109.14 4.42 109.33 4.44L109.47 4.44C109.54 4.44 109.63 4.45 109.77 4.45C109.91 4.45 110.07 4.47 110.24 4.47L110.24 10.04C110.24 10.58 110.32 11.09 110.49 11.56C110.66 12.04 110.91 12.46 111.23 12.81C111.55 13.16 111.96 13.44 112.42 13.64C112.88 13.83 113.41 13.93 113.99 13.93C114.56 13.93 115.08 13.83 115.54 13.64C116.00 13.44 116.41 13.16 116.73 12.81C117.05 12.46 117.31 12.04 117.47 11.56C117.64 11.09 117.74 10.58 117.74 10.04L117.74 4.47C117.91 4.47 118.05 4.45 118.19 4.45C118.33 4.45 118.44 4.44 118.51 4.44L118.64 4.44C118.82 4.42 118.92 4.34 118.92 4.19L118.92 3.92ZM134.93 13.29L134.83 13.29L134.65 13.29C134.57 13.29 134.48 13.27 134.40 13.27L131.43 9.53C131.35 9.42 131.24 9.32 131.12 9.25C131.56 9.21 131.95 9.11 132.30 8.96C132.65 8.81 132.93 8.61 133.18 8.37C133.42 8.13 133.62 7.85 133.74 7.55C133.87 7.24 133.94 6.89 133.94 6.51C133.94 5.66 133.66 5.03 133.10 4.58C132.54 4.14 131.68 3.92 130.54 3.92L128.13 3.92L126.95 3.92L126.95 4.19C126.95 4.34 127.04 4.42 127.22 4.44L127.36 4.44C127.43 4.44 127.53 4.45 127.67 4.45C127.81 4.45 127.96 4.47 128.13 4.47L128.13 13.26C127.96 13.26 127.81 13.27 127.67 13.27C127.53 13.27 127.43 13.29 127.36 13.29L127.22 13.29C127.04 13.30 126.94 13.38 126.94 13.54L126.94 13.82L128.13 13.82L128.84 13.82L130.02 13.82L130.02 13.54C130.02 13.38 129.92 13.30 129.74 13.29L129.60 13.29C129.53 13.29 129.43 13.27 129.29 13.27C129.15 13.27 129.01 13.26 128.84 13.26L128.84 9.34L130.02 9.34C130.21 9.34 130.35 9.35 130.44 9.39C130.52 9.44 130.61 9.52 130.69 9.62L133.87 13.64C133.92 13.71 133.97 13.75 134.02 13.78C134.08 13.80 134.15 13.82 134.22 13.82L134.29 13.82L134.83 13.82L135.20 13.82L135.20 13.54C135.20 13.38 135.11 13.30 134.93 13.29ZM130.44 8.81L128.84 8.81L128.84 4.48L130.54 4.48C131.42 4.48 132.09 4.66 132.55 5.00C133.01 5.33 133.24 5.87 133.24 6.57C133.24 6.92 133.18 7.21 133.06 7.49C132.93 7.77 132.73 7.99 132.50 8.19C132.26 8.39 131.96 8.55 131.61 8.65C131.26 8.75 130.87 8.81 130.44 8.81ZM144.59 3.92L143.40 3.92L143.40 4.19C143.40 4.34 143.50 4.42 143.68 4.44L143.82 4.44C143.89 4.44 143.99 4.45 144.13 4.45C144.27 4.45 144.42 4.47 144.59 4.47L144.59 13.26C144.42 13.26 144.27 13.27 144.13 13.27C143.99 13.27 143.89 13.29 143.82 13.29L143.68 13.29C143.50 13.30 143.42 13.38 143.42 13.54L143.42 13.82L144.59 13.82L150.53 13.82L150.53 13.22L150.53 11.76L150.18 11.76C149.98 11.76 149.90 11.89 149.88 12.11C149.88 12.14 149.87 12.19 149.87 12.29C149.87 12.39 149.87 12.53 149.86 12.74C149.84 12.95 149.83 13.09 149.83 13.22L145.31 13.22L145.31 9.09L149.25 9.09L149.25 8.51L145.31 8.51L145.31 4.51L149.83 4.51C149.86 5.12 149.88 5.50 149.88 5.63C149.90 5.85 149.98 5.96 150.18 5.96L150.53 5.96L150.53 4.51L150.53 3.92ZM178.53 3.92L177.97 3.92L177.94 3.92L176.47 3.92L176.47 4.19C176.47 4.34 176.55 4.42 176.74 4.44L176.86 4.44C176.92 4.44 177.00 4.45 177.13 4.45C177.25 4.45 177.39 4.47 177.55 4.47L174.34 12.32C174.26 12.53 174.19 12.75 174.13 13.01C174.08 12.77 174.01 12.53 173.92 12.32L170.69 4.47C170.84 4.47 171.00 4.45 171.12 4.45C171.25 4.45 171.33 4.44 171.39 4.44L171.50 4.44C171.68 4.42 171.78 4.34 171.78 4.19L171.78 3.92L170.28 3.92L169.72 3.92L169.12 3.92L169.12 4.19C169.12 4.34 169.22 4.42 169.40 4.44L169.50 4.44C169.54 4.44 169.61 4.45 169.68 4.45C169.75 4.45 169.85 4.47 169.95 4.47L173.81 13.82L174.44 13.82L178.30 4.47C178.40 4.47 178.50 4.45 178.57 4.45C178.64 4.45 178.71 4.44 178.75 4.44L178.84 4.44C179.02 4.42 179.12 4.34 179.12 4.19L179.12 3.92ZM189.98 4.44C190.16 4.42 190.25 4.34 190.25 4.19L190.25 3.91L189.07 3.91L188.36 3.91L187.17 3.91L187.17 4.19C187.17 4.34 187.26 4.42 187.45 4.44L187.59 4.44C187.66 4.44 187.75 4.45 187.89 4.45C188.03 4.45 188.19 4.47 188.36 4.47L188.36 13.26C188.19 13.26 188.03 13.27 187.89 13.27C187.75 13.27 187.66 13.29 187.59 13.29L187.45 13.29C187.26 13.30 187.17 13.38 187.17 13.54L187.17 13.82L188.36 13.82L189.07 13.82L190.25 13.82L190.25 13.54C190.25 13.38 190.16 13.30 189.98 13.29L189.84 13.29C189.77 13.29 189.67 13.27 189.53 13.27C189.39 13.27 189.24 13.26 189.07 13.26L189.07 4.47C189.24 4.47 189.39 4.45 189.53 4.45C189.67 4.45 189.77 4.44 189.84 4.44ZM204.32 9.91C204.18 9.65 203.98 9.39 203.74 9.21C203.50 9.03 203.25 8.88 202.96 8.75C202.66 8.62 202.34 8.51 202.03 8.41C201.73 8.32 201.42 8.20 201.12 8.11C200.83 7.99 200.56 7.87 200.33 7.71C200.09 7.56 199.91 7.38 199.77 7.15C199.63 6.93 199.54 6.65 199.54 6.31C199.54 6.06 199.60 5.82 199.70 5.59C199.79 5.35 199.93 5.15 200.12 4.97C200.30 4.79 200.52 4.65 200.80 4.55C201.08 4.45 201.39 4.40 201.75 4.40C202.43 4.40 203.04 4.51 203.60 4.75C203.64 5.54 203.67 5.99 203.67 6.06C203.69 6.29 203.77 6.41 203.97 6.41L204.30 6.41L204.30 4.38C203.42 4.00 202.58 3.81 201.75 3.81C201.29 3.81 200.89 3.88 200.52 4.02C200.16 4.16 199.86 4.34 199.63 4.58C199.39 4.82 199.19 5.08 199.07 5.39C198.94 5.70 198.88 6.02 198.88 6.36C198.88 6.78 198.95 7.14 199.09 7.42C199.23 7.70 199.43 7.92 199.67 8.12C199.91 8.32 200.16 8.46 200.45 8.58C200.75 8.71 201.07 8.82 201.38 8.92C201.68 9.02 201.98 9.11 202.29 9.21C202.58 9.31 202.85 9.45 203.08 9.60C203.32 9.76 203.50 9.94 203.64 10.16C203.78 10.39 203.85 10.68 203.85 11.03C203.85 11.35 203.80 11.66 203.69 11.94C203.57 12.22 203.42 12.46 203.21 12.67C203 12.88 202.73 13.05 202.43 13.16C202.12 13.29 201.77 13.33 201.38 13.33C200.59 13.33 199.93 13.20 199.40 12.95C199.39 12.75 199.39 12.54 199.37 12.32C199.36 12.10 199.36 11.91 199.35 11.76C199.33 11.61 199.33 11.52 199.33 11.51C199.32 11.28 199.22 11.17 199.02 11.17L198.69 11.17L198.69 13.02L198.69 13.20L198.69 13.38C199.54 13.75 200.42 13.93 201.35 13.93C201.85 13.93 202.30 13.85 202.69 13.69C203.08 13.54 203.42 13.31 203.69 13.05C203.95 12.78 204.18 12.46 204.32 12.10C204.46 11.73 204.53 11.34 204.53 10.92C204.53 10.51 204.46 10.18 204.32 9.91ZM215.60 4.44C215.78 4.42 215.87 4.34 215.87 4.19L215.87 3.91L214.69 3.91L213.98 3.91L212.79 3.91L212.79 4.19C212.79 4.34 212.88 4.42 213.07 4.44L213.21 4.44C213.28 4.44 213.37 4.45 213.51 4.45C213.65 4.45 213.81 4.47 213.98 4.47L213.98 13.26C213.81 13.26 213.65 13.27 213.51 13.27C213.37 13.27 213.28 13.29 213.21 13.29L213.07 13.29C212.88 13.30 212.79 13.38 212.79 13.54L212.79 13.82L213.98 13.82L214.69 13.82L215.87 13.82L215.87 13.54C215.87 13.38 215.78 13.30 215.60 13.29L215.46 13.29C215.39 13.29 215.29 13.27 215.15 13.27C215.01 13.27 214.86 13.26 214.69 13.26L214.69 4.47C214.86 4.47 215.01 4.45 215.15 4.45C215.29 4.45 215.39 4.44 215.46 4.44ZM233.48 8.86C233.48 8.11 233.35 7.41 233.13 6.79C232.90 6.17 232.58 5.64 232.16 5.19C231.74 4.75 231.25 4.40 230.68 4.16C230.10 3.92 229.45 3.79 228.75 3.79C228.05 3.79 227.42 3.92 226.84 4.16C226.27 4.40 225.76 4.75 225.34 5.19C224.92 5.64 224.60 6.17 224.38 6.79C224.15 7.41 224.03 8.11 224.03 8.86C224.03 9.63 224.15 10.33 224.38 10.95C224.60 11.56 224.92 12.10 225.34 12.54C225.76 12.99 226.27 13.33 226.84 13.57C227.42 13.80 228.05 13.93 228.75 13.93C229.45 13.93 230.10 13.80 230.68 13.57C231.25 13.33 231.74 12.99 232.16 12.54C232.58 12.10 232.90 11.56 233.13 10.95C233.35 10.33 233.48 9.63 233.48 8.86ZM232.72 8.86C232.72 9.56 232.64 10.18 232.44 10.72C232.25 11.27 231.98 11.75 231.63 12.12C231.28 12.50 230.86 12.81 230.37 13.01C229.88 13.20 229.35 13.30 228.75 13.30C228.16 13.30 227.63 13.20 227.14 13.01C226.65 12.81 226.23 12.50 225.88 12.12C225.53 11.75 225.25 11.27 225.05 10.72C224.85 10.18 224.77 9.56 224.77 8.86C224.77 8.18 224.85 7.55 225.05 7.00C225.25 6.45 225.53 5.98 225.88 5.60C226.23 5.22 226.65 4.91 227.14 4.72C227.63 4.52 228.16 4.41 228.75 4.41C229.35 4.41 229.88 4.52 230.37 4.72C230.86 4.91 231.28 5.22 231.63 5.60C231.98 5.98 232.25 6.45 232.44 7.00C232.64 7.55 232.72 8.18 232.72 8.86ZM250.31 3.92L249.68 3.92L248.46 3.92L248.46 4.19C248.46 4.34 248.56 4.42 248.74 4.44L248.88 4.44C248.95 4.44 249.06 4.45 249.20 4.45C249.34 4.45 249.51 4.47 249.68 4.47L249.68 12.22C249.68 12.35 249.68 12.49 249.69 12.63L243.28 4.05C243.24 3.99 243.21 3.95 243.17 3.93C243.12 3.92 243.08 3.91 243.01 3.91L242.66 3.91L241.47 3.91L241.47 4.19C241.47 4.34 241.57 4.42 241.75 4.44L241.89 4.44C241.96 4.44 242.06 4.45 242.20 4.45C242.34 4.45 242.49 4.47 242.66 4.47L242.66 13.26C242.49 13.26 242.34 13.27 242.20 13.27C242.06 13.27 241.96 13.29 241.89 13.29L241.75 13.29C241.57 13.30 241.47 13.38 241.47 13.54L241.47 13.82L242.66 13.82L243.28 13.82L244.50 13.82L244.50 13.54C244.50 13.38 244.40 13.30 244.22 13.29L244.08 13.29C244.01 13.29 243.88 13.27 243.74 13.27C243.60 13.27 243.45 13.26 243.28 13.26L243.28 5.49C243.28 5.36 243.28 5.22 243.26 5.08L249.70 13.68C249.77 13.78 249.84 13.82 249.96 13.82L250.31 13.82L250.31 4.47C250.47 4.47 250.61 4.45 250.75 4.45C250.89 4.45 251.01 4.44 251.08 4.44L251.20 4.44C251.38 4.42 251.48 4.34 251.48 4.19L251.48 3.92ZM272.71 4.44C272.89 4.42 272.97 4.34 272.97 4.19L272.97 3.91L271.80 3.91L271.08 3.91L269.89 3.91L269.89 4.19C269.89 4.34 269.99 4.42 270.17 4.44L270.31 4.44C270.38 4.44 270.48 4.45 270.62 4.45C270.76 4.45 270.91 4.47 271.08 4.47L271.08 13.26C270.91 13.26 270.76 13.27 270.62 13.27C270.48 13.27 270.38 13.29 270.31 13.29L270.17 13.29C269.99 13.30 269.89 13.38 269.89 13.54L269.89 13.82L271.08 13.82L271.80 13.82L272.97 13.82L272.97 13.54C272.97 13.38 272.89 13.30 272.71 13.29L272.57 13.29C272.50 13.29 272.40 13.27 272.26 13.27C272.12 13.27 271.96 13.26 271.80 13.26L271.80 4.47C271.96 4.47 272.12 4.45 272.26 4.45C272.40 4.45 272.50 4.44 272.57 4.44ZM287.04 9.91C286.90 9.65 286.71 9.39 286.47 9.21C286.23 9.03 285.98 8.88 285.68 8.75C285.39 8.62 285.07 8.51 284.76 8.41C284.45 8.32 284.14 8.20 283.85 8.11C283.56 7.99 283.29 7.87 283.05 7.71C282.81 7.56 282.63 7.38 282.49 7.15C282.35 6.93 282.27 6.65 282.27 6.31C282.27 6.06 282.32 5.82 282.42 5.59C282.52 5.35 282.66 5.15 282.84 4.97C283.02 4.79 283.25 4.65 283.53 4.55C283.81 4.45 284.12 4.40 284.48 4.40C285.15 4.40 285.77 4.51 286.33 4.75C286.37 5.54 286.40 5.99 286.40 6.06C286.41 6.29 286.50 6.41 286.69 6.41L287.03 6.41L287.03 4.38C286.15 4.00 285.31 3.81 284.48 3.81C284.02 3.81 283.61 3.88 283.25 4.02C282.88 4.16 282.59 4.34 282.35 4.58C282.11 4.82 281.92 5.08 281.79 5.39C281.67 5.70 281.61 6.02 281.61 6.36C281.61 6.78 281.68 7.14 281.82 7.42C281.96 7.70 282.16 7.92 282.39 8.12C282.63 8.32 282.88 8.46 283.18 8.58C283.47 8.71 283.79 8.82 284.10 8.92C284.41 9.02 284.70 9.11 285.01 9.21C285.31 9.31 285.57 9.45 285.81 9.60C286.05 9.76 286.23 9.94 286.37 10.16C286.51 10.39 286.58 10.68 286.58 11.03C286.58 11.35 286.52 11.66 286.41 11.94C286.30 12.22 286.15 12.46 285.94 12.67C285.73 12.88 285.46 13.05 285.15 13.16C284.84 13.29 284.49 13.33 284.10 13.33C283.32 13.33 282.66 13.20 282.13 12.95C282.11 12.75 282.11 12.54 282.10 12.32C282.09 12.10 282.09 11.91 282.07 11.76C282.06 11.61 282.06 11.52 282.06 11.51C282.04 11.28 281.95 11.17 281.75 11.17L281.41 11.17L281.41 13.02L281.41 13.20L281.41 13.38C282.27 13.75 283.15 13.93 284.07 13.93C284.58 13.93 285.03 13.85 285.42 13.69C285.81 13.54 286.15 13.31 286.41 13.05C286.68 12.78 286.90 12.46 287.04 12.10C287.18 11.73 287.25 11.34 287.25 10.92C287.25 10.51 287.18 10.18 287.04 9.91ZM315.15 8.86C315.15 8.11 315.03 7.41 314.80 6.79C314.58 6.17 314.26 5.64 313.84 5.19C313.42 4.75 312.93 4.40 312.35 4.16C311.78 3.92 311.12 3.79 310.42 3.79C309.72 3.79 309.09 3.92 308.52 4.16C307.94 4.40 307.44 4.75 307.02 5.19C306.60 5.64 306.28 6.17 306.05 6.79C305.83 7.41 305.70 8.11 305.70 8.86C305.70 9.63 305.83 10.33 306.05 10.95C306.28 11.56 306.60 12.10 307.02 12.54C307.44 12.99 307.94 13.33 308.52 13.57C309.09 13.80 309.72 13.93 310.42 13.93C311.12 13.93 311.78 13.80 312.35 13.57C312.93 13.33 313.42 12.99 313.84 12.54C314.26 12.10 314.58 11.56 314.80 10.95C315.03 10.33 315.15 9.63 315.15 8.86ZM314.40 8.86C314.40 9.56 314.31 10.18 314.12 10.72C313.92 11.27 313.66 11.75 313.31 12.12C312.96 12.50 312.54 12.81 312.05 13.01C311.56 13.20 311.02 13.30 310.42 13.30C309.83 13.30 309.30 13.20 308.81 13.01C308.32 12.81 307.90 12.50 307.55 12.12C307.20 11.75 306.92 11.27 306.73 10.72C306.53 10.18 306.45 9.56 306.45 8.86C306.45 8.18 306.53 7.55 306.73 7.00C306.92 6.45 307.20 5.98 307.55 5.60C307.90 5.22 308.32 4.91 308.81 4.72C309.30 4.52 309.83 4.41 310.42 4.41C311.02 4.41 311.56 4.52 312.05 4.72C312.54 4.91 312.96 5.22 313.31 5.60C313.66 5.98 313.92 6.45 314.12 7.00C314.31 7.55 314.40 8.18 314.40 8.86ZM331.39 3.92L330.68 3.92L329.32 3.92L329.32 4.19C329.32 4.34 329.42 4.42 329.60 4.44L329.77 4.44C329.87 4.44 330.01 4.45 330.18 4.45C330.34 4.45 330.51 4.47 330.68 4.47L330.68 10.04C330.68 10.50 330.61 10.92 330.47 11.33C330.33 11.73 330.13 12.08 329.87 12.38C329.60 12.67 329.29 12.89 328.92 13.06C328.54 13.23 328.12 13.31 327.64 13.31C327.17 13.31 326.73 13.23 326.35 13.06C325.98 12.89 325.65 12.66 325.40 12.36C325.14 12.07 324.95 11.72 324.81 11.33C324.67 10.93 324.60 10.50 324.60 10.04L324.60 4.47C324.77 4.47 324.94 4.45 325.11 4.45C325.28 4.45 325.42 4.44 325.51 4.44L325.68 4.44C325.86 4.42 325.96 4.34 325.96 4.19L325.96 3.92L324.60 3.92L323.89 3.92L322.71 3.92L322.71 4.19C322.71 4.34 322.80 4.42 322.98 4.44L323.12 4.44C323.19 4.44 323.29 4.45 323.43 4.45C323.57 4.45 323.72 4.47 323.89 4.47L323.89 10.04C323.89 10.58 323.97 11.09 324.14 11.56C324.31 12.04 324.56 12.46 324.88 12.81C325.21 13.16 325.61 13.44 326.07 13.64C326.54 13.83 327.07 13.93 327.64 13.93C328.22 13.93 328.73 13.83 329.20 13.64C329.66 13.44 330.06 13.16 330.39 12.81C330.71 12.46 330.96 12.04 331.13 11.56C331.30 11.09 331.39 10.58 331.39 10.04L331.39 4.47C331.56 4.47 331.70 4.45 331.84 4.45C331.98 4.45 332.09 4.44 332.16 4.44L332.29 4.44C332.47 4.42 332.57 4.34 332.57 4.19L332.57 3.92ZM348.59 13.29L348.49 13.29L348.31 13.29C348.22 13.29 348.14 13.27 348.05 13.27L345.09 9.53C345.00 9.42 344.89 9.32 344.78 9.25C345.21 9.21 345.60 9.11 345.95 8.96C346.30 8.81 346.58 8.61 346.84 8.37C347.07 8.13 347.27 7.85 347.40 7.55C347.52 7.24 347.59 6.89 347.59 6.51C347.59 5.66 347.31 5.03 346.75 4.58C346.19 4.14 345.34 3.92 344.19 3.92L341.78 3.92L340.61 3.92L340.61 4.19C340.61 4.34 340.69 4.42 340.87 4.44L341.01 4.44C341.08 4.44 341.18 4.45 341.32 4.45C341.46 4.45 341.61 4.47 341.78 4.47L341.78 13.26C341.61 13.26 341.46 13.27 341.32 13.27C341.18 13.27 341.08 13.29 341.01 13.29L340.87 13.29C340.69 13.30 340.59 13.38 340.59 13.54L340.59 13.82L341.78 13.82L342.50 13.82L343.67 13.82L343.67 13.54C343.67 13.38 343.57 13.30 343.39 13.29L343.25 13.29C343.18 13.29 343.08 13.27 342.94 13.27C342.80 13.27 342.66 13.26 342.50 13.26L342.50 9.34L343.67 9.34C343.87 9.34 344.01 9.35 344.09 9.39C344.18 9.44 344.26 9.52 344.34 9.62L347.52 13.64C347.58 13.71 347.62 13.75 347.68 13.78C347.73 13.80 347.80 13.82 347.87 13.82L347.94 13.82L348.49 13.82L348.85 13.82L348.85 13.54C348.85 13.38 348.77 13.30 348.59 13.29ZM344.09 8.81L342.50 8.81L342.50 4.48L344.19 4.48C345.07 4.48 345.74 4.66 346.21 5.00C346.67 5.33 346.89 5.87 346.89 6.57C346.89 6.92 346.84 7.21 346.71 7.49C346.58 7.77 346.39 7.99 346.15 8.19C345.91 8.39 345.62 8.55 345.27 8.65C344.92 8.75 344.53 8.81 344.09 8.81ZM379.30 4.44C379.48 4.42 379.58 4.34 379.58 4.19L379.58 3.92L378.41 3.92L377.90 3.92C377.83 3.92 377.79 3.92 377.75 3.93C377.71 3.95 377.68 3.99 377.64 4.05L373.74 10.92C373.70 10.99 373.67 11.06 373.65 11.13C373.62 11.20 373.59 11.28 373.56 11.35C373.51 11.20 373.45 11.06 373.38 10.93L369.38 4.05C369.33 3.99 369.31 3.95 369.26 3.93C369.22 3.92 369.18 3.92 369.11 3.92L368.62 3.92L367.43 3.92L367.43 4.19C367.43 4.34 367.53 4.42 367.71 4.44L367.85 4.44C367.92 4.44 368.02 4.45 368.16 4.45C368.30 4.45 368.45 4.47 368.62 4.47L368.62 13.26C368.45 13.26 368.30 13.27 368.16 13.27C368.02 13.27 367.92 13.29 367.85 13.29L367.71 13.29C367.53 13.30 367.43 13.38 367.43 13.54L367.43 13.82L368.62 13.82L369.24 13.82L370.45 13.82L370.45 13.54C370.45 13.38 370.36 13.30 370.17 13.29L370.03 13.29C369.96 13.29 369.85 13.27 369.71 13.27C369.57 13.27 369.40 13.26 369.24 13.26L369.24 5.38C369.24 5.25 369.24 5.12 369.22 4.98L373.23 11.91C373.30 12.04 373.39 12.10 373.51 12.10L373.62 12.10C373.74 12.10 373.83 12.04 373.90 11.91L377.79 4.98C377.78 5.12 377.78 5.25 377.78 5.38L377.78 13.26C377.61 13.26 377.44 13.27 377.30 13.27C377.16 13.27 377.05 13.29 376.98 13.29L376.84 13.29C376.66 13.30 376.56 13.38 376.56 13.54L376.56 13.82L377.78 13.82L378.41 13.82L379.58 13.82L379.58 13.54C379.58 13.38 379.48 13.30 379.30 13.29L379.18 13.29C379.11 13.29 378.99 13.27 378.85 13.27C378.71 13.27 378.57 13.26 378.41 13.26L378.41 4.47C378.57 4.47 378.71 4.45 378.85 4.45C378.99 4.45 379.11 4.44 379.18 4.44ZM390.74 4.44C390.92 4.42 391.01 4.34 391.01 4.19L391.01 3.91L389.83 3.91L389.12 3.91L387.93 3.91L387.93 4.19C387.93 4.34 388.02 4.42 388.21 4.44L388.35 4.44C388.42 4.44 388.51 4.45 388.65 4.45C388.79 4.45 388.95 4.47 389.12 4.47L389.12 13.26C388.95 13.26 388.79 13.27 388.65 13.27C388.51 13.27 388.42 13.29 388.35 13.29L388.21 13.29C388.02 13.30 387.93 13.38 387.93 13.54L387.93 13.82L389.12 13.82L389.83 13.82L391.01 13.82L391.01 13.54C391.01 13.38 390.92 13.30 390.74 13.29L390.60 13.29C390.53 13.29 390.43 13.27 390.29 13.27C390.15 13.27 390.00 13.26 389.83 13.26L389.83 4.47C390.00 4.47 390.15 4.45 390.29 4.45C390.43 4.45 390.53 4.44 390.60 4.44ZM405.08 9.91C404.94 9.65 404.74 9.39 404.50 9.21C404.26 9.03 404.01 8.88 403.72 8.75C403.42 8.62 403.10 8.51 402.79 8.41C402.49 8.32 402.18 8.20 401.88 8.11C401.59 7.99 401.32 7.87 401.09 7.71C400.85 7.56 400.67 7.38 400.53 7.15C400.39 6.93 400.30 6.65 400.30 6.31C400.30 6.06 400.36 5.82 400.46 5.59C400.55 5.35 400.69 5.15 400.88 4.97C401.06 4.79 401.28 4.65 401.56 4.55C401.84 4.45 402.15 4.40 402.51 4.40C403.19 4.40 403.80 4.51 404.36 4.75C404.40 5.54 404.43 5.99 404.43 6.06C404.45 6.29 404.53 6.41 404.73 6.41L405.06 6.41L405.06 4.38C404.18 4.00 403.34 3.81 402.51 3.81C402.05 3.81 401.65 3.88 401.28 4.02C400.92 4.16 400.62 4.34 400.39 4.58C400.15 4.82 399.95 5.08 399.83 5.39C399.70 5.70 399.64 6.02 399.64 6.36C399.64 6.78 399.71 7.14 399.85 7.42C399.99 7.70 400.19 7.92 400.43 8.12C400.67 8.32 400.92 8.46 401.21 8.58C401.51 8.71 401.83 8.82 402.14 8.92C402.44 9.02 402.74 9.11 403.05 9.21C403.34 9.31 403.61 9.45 403.84 9.60C404.08 9.76 404.26 9.94 404.40 10.16C404.54 10.39 404.61 10.68 404.61 11.03C404.61 11.35 404.56 11.66 404.45 11.94C404.33 12.22 404.18 12.46 403.97 12.67C403.76 12.88 403.49 13.05 403.19 13.16C402.88 13.29 402.53 13.33 402.14 13.33C401.35 13.33 400.69 13.20 400.16 12.95C400.15 12.75 400.15 12.54 400.13 12.32C400.12 12.10 400.12 11.91 400.11 11.76C400.09 11.61 400.09 11.52 400.09 11.51C400.08 11.28 399.98 11.17 399.78 11.17L399.45 11.17L399.45 13.02L399.45 13.20L399.45 13.38C400.30 13.75 401.18 13.93 402.11 13.93C402.61 13.93 403.06 13.85 403.45 13.69C403.84 13.54 404.18 13.31 404.45 13.05C404.71 12.78 404.94 12.46 405.08 12.10C405.22 11.73 405.29 11.34 405.29 10.92C405.29 10.51 405.22 10.18 405.08 9.91ZM419.27 9.91C419.13 9.65 418.94 9.39 418.70 9.21C418.46 9.03 418.21 8.88 417.91 8.75C417.62 8.62 417.30 8.51 416.99 8.41C416.68 8.32 416.37 8.20 416.08 8.11C415.79 7.99 415.52 7.87 415.28 7.71C415.04 7.56 414.86 7.38 414.72 7.15C414.58 6.93 414.50 6.65 414.50 6.31C414.50 6.06 414.55 5.82 414.65 5.59C414.75 5.35 414.89 5.15 415.07 4.97C415.25 4.79 415.48 4.65 415.76 4.55C416.04 4.45 416.35 4.40 416.71 4.40C417.38 4.40 418.00 4.51 418.56 4.75C418.60 5.54 418.63 5.99 418.63 6.06C418.64 6.29 418.73 6.41 418.92 6.41L419.26 6.41L419.26 4.38C418.38 4.00 417.54 3.81 416.71 3.81C416.25 3.81 415.84 3.88 415.48 4.02C415.11 4.16 414.82 4.34 414.58 4.58C414.34 4.82 414.15 5.08 414.02 5.39C413.90 5.70 413.84 6.02 413.84 6.36C413.84 6.78 413.91 7.14 414.05 7.42C414.19 7.70 414.39 7.92 414.62 8.12C414.86 8.32 415.11 8.46 415.41 8.58C415.70 8.71 416.02 8.82 416.33 8.92C416.64 9.02 416.93 9.11 417.24 9.21C417.54 9.31 417.80 9.45 418.04 9.60C418.28 9.76 418.46 9.94 418.60 10.16C418.74 10.39 418.81 10.68 418.81 11.03C418.81 11.35 418.75 11.66 418.64 11.94C418.53 12.22 418.38 12.46 418.17 12.67C417.96 12.88 417.69 13.05 417.38 13.16C417.07 13.29 416.72 13.33 416.33 13.33C415.55 13.33 414.89 13.20 414.36 12.95C414.34 12.75 414.34 12.54 414.33 12.32C414.32 12.10 414.32 11.91 414.30 11.76C414.29 11.61 414.29 11.52 414.29 11.51C414.27 11.28 414.18 11.17 413.98 11.17L413.64 11.17L413.64 13.02L413.64 13.20L413.64 13.38C414.50 13.75 415.38 13.93 416.30 13.93C416.81 13.93 417.26 13.85 417.65 13.69C418.04 13.54 418.38 13.31 418.64 13.05C418.91 12.78 419.13 12.46 419.27 12.10C419.41 11.73 419.48 11.34 419.48 10.92C419.48 10.51 419.41 10.18 419.27 9.91ZM430.56 4.44C430.74 4.42 430.82 4.34 430.82 4.19L430.82 3.91L429.65 3.91L428.93 3.91L427.74 3.91L427.74 4.19C427.74 4.34 427.84 4.42 428.02 4.44L428.16 4.44C428.23 4.44 428.33 4.45 428.47 4.45C428.61 4.45 428.76 4.47 428.93 4.47L428.93 13.26C428.76 13.26 428.61 13.27 428.47 13.27C428.33 13.27 428.23 13.29 428.16 13.29L428.02 13.29C427.84 13.30 427.74 13.38 427.74 13.54L427.74 13.82L428.93 13.82L429.65 13.82L430.82 13.82L430.82 13.54C430.82 13.38 430.74 13.30 430.56 13.29L430.42 13.29C430.35 13.29 430.25 13.27 430.11 13.27C429.97 13.27 429.81 13.26 429.65 13.26L429.65 4.47C429.81 4.47 429.97 4.45 430.11 4.45C430.25 4.45 430.35 4.44 430.42 4.44ZM448.43 8.86C448.43 8.11 448.31 7.41 448.08 6.79C447.86 6.17 447.54 5.64 447.12 5.19C446.70 4.75 446.21 4.40 445.63 4.16C445.06 3.92 444.40 3.79 443.70 3.79C443.00 3.79 442.37 3.92 441.80 4.16C441.22 4.40 440.72 4.75 440.30 5.19C439.88 5.64 439.56 6.17 439.33 6.79C439.11 7.41 438.98 8.11 438.98 8.86C438.98 9.63 439.11 10.33 439.33 10.95C439.56 11.56 439.88 12.10 440.30 12.54C440.72 12.99 441.22 13.33 441.80 13.57C442.37 13.80 443.00 13.93 443.70 13.93C444.40 13.93 445.06 13.80 445.63 13.57C446.21 13.33 446.70 12.99 447.12 12.54C447.54 12.10 447.86 11.56 448.08 10.95C448.31 10.33 448.43 9.63 448.43 8.86ZM447.68 8.86C447.68 9.56 447.59 10.18 447.40 10.72C447.20 11.27 446.94 11.75 446.59 12.12C446.24 12.50 445.82 12.81 445.33 13.01C444.84 13.20 444.30 13.30 443.70 13.30C443.11 13.30 442.58 13.20 442.09 13.01C441.60 12.81 441.18 12.50 440.83 12.12C440.48 11.75 440.20 11.27 440.01 10.72C439.81 10.18 439.73 9.56 439.73 8.86C439.73 8.18 439.81 7.55 440.01 7.00C440.20 6.45 440.48 5.98 440.83 5.60C441.18 5.22 441.60 4.91 442.09 4.72C442.58 4.52 443.11 4.41 443.70 4.41C444.30 4.41 444.84 4.52 445.33 4.72C445.82 4.91 446.24 5.22 446.59 5.60C446.94 5.98 447.20 6.45 447.40 7.00C447.59 7.55 447.68 8.18 447.68 8.86ZM465.26 3.92L464.63 3.92L463.41 3.92L463.41 4.19C463.41 4.34 463.51 4.42 463.69 4.44L463.83 4.44C463.90 4.44 464.02 4.45 464.16 4.45C464.30 4.45 464.46 4.47 464.63 4.47L464.63 12.22C464.63 12.35 464.63 12.49 464.65 12.63L458.23 4.05C458.19 3.99 458.16 3.95 458.12 3.93C458.08 3.92 458.04 3.91 457.97 3.91L457.62 3.91L456.43 3.91L456.43 4.19C456.43 4.34 456.53 4.42 456.71 4.44L456.85 4.44C456.92 4.44 457.02 4.45 457.16 4.45C457.30 4.45 457.45 4.47 457.62 4.47L457.62 13.26C457.45 13.26 457.30 13.27 457.16 13.27C457.02 13.27 456.92 13.29 456.85 13.29L456.71 13.29C456.53 13.30 456.43 13.38 456.43 13.54L456.43 13.82L457.62 13.82L458.23 13.82L459.45 13.82L459.45 13.54C459.45 13.38 459.35 13.30 459.17 13.29L459.03 13.29C458.96 13.29 458.84 13.27 458.70 13.27C458.56 13.27 458.40 13.26 458.23 13.26L458.23 5.49C458.23 5.36 458.23 5.22 458.22 5.08L464.66 13.68C464.73 13.78 464.80 13.82 464.91 13.82L465.26 13.82L465.26 4.47C465.43 4.47 465.57 4.45 465.71 4.45C465.85 4.45 465.96 4.44 466.03 4.44L466.16 4.44C466.34 4.42 466.44 4.34 466.44 4.19L466.44 3.92Z"></path></g></svg>