<svg data-v-423bf9ae="" xmlns="http://www.w3.org/2000/svg" viewBox="0 0 619.0624672263165 60" class="font"><!----><!----><!----><g data-v-423bf9ae="" id="d0884c47-f536-40da-a158-99647c7ed44b" fill="white" transform="matrix(4.464285536890945,0,0,4.464285536890945,-6.116072820588897,-16.0714270302228)"><path d="M1.37 13.65L2.59 13.65L2.59 7.80C2.59 7.38 2.58 6.78 2.55 6.26C2.80 6.66 3.15 7.20 3.44 7.60L7.83 13.65L8.75 13.65L8.75 4.40L7.53 4.40L7.53 9.86C7.53 10.22 7.55 10.88 7.56 11.45C7.29 11.03 7.01 10.61 6.82 10.33L2.52 4.40L1.37 4.40ZM16.23 10.61L16.23 9.91C16.23 7.95 15.32 7.03 13.62 7.03C11.38 7.03 10.65 8.75 10.65 10.47C10.65 12.78 11.75 13.85 13.65 13.85C15.06 13.85 15.90 13.16 16.23 12.01L15.25 11.82C15.06 12.40 14.52 12.92 13.68 12.92C12.21 12.92 11.87 11.80 11.86 10.61ZM13.59 7.95C14.60 7.95 15.06 8.61 15.06 9.46L15.06 9.72L11.90 9.72C12.07 8.50 12.70 7.95 13.59 7.95ZM17.11 13.65L18.31 13.65L19.94 11.24L21.57 13.65L22.88 13.65L20.64 10.36L22.79 7.22L21.59 7.22L20.05 9.51L18.51 7.22L17.21 7.22L19.36 10.39ZM23.52 8.12L24.61 8.12L24.61 11.76C24.61 12.78 24.92 13.79 26.19 13.79C27.16 13.79 27.61 13.22 27.90 12.50L27.05 12.12C26.91 12.63 26.68 12.87 26.33 12.87C25.89 12.87 25.73 12.50 25.73 11.70L25.73 8.12L27.55 8.12L27.55 7.22L25.73 7.22L25.73 5.32L24.71 5.32L24.64 7.22L23.52 7.22ZM32.86 13.65L34.08 13.65L34.08 9.52L37.84 9.52L37.84 8.44L34.08 8.44L34.08 5.47L38.43 5.47L38.43 4.40L32.86 4.40ZM39.58 11.89C39.58 13.26 40.38 13.85 41.50 13.85C42.97 13.85 43.60 12.95 43.83 12.47L43.89 13.65L44.91 13.65L44.91 7.22L43.79 7.22L43.79 10.85C43.60 11.54 43.04 12.88 41.68 12.88C41.01 12.88 40.70 12.52 40.70 11.56L40.70 7.22L39.58 7.22ZM46.34 8.12L47.43 8.12L47.43 11.76C47.43 12.78 47.74 13.79 49.01 13.79C49.98 13.79 50.43 13.22 50.72 12.50L49.87 12.12C49.73 12.63 49.50 12.87 49.15 12.87C48.71 12.87 48.55 12.50 48.55 11.70L48.55 8.12L50.37 8.12L50.37 7.22L48.55 7.22L48.55 5.32L47.53 5.32L47.46 7.22L46.34 7.22ZM52.00 11.89C52.00 13.26 52.79 13.85 53.91 13.85C55.38 13.85 56.01 12.95 56.25 12.47L56.31 13.65L57.33 13.65L57.33 7.22L56.21 7.22L56.21 10.85C56.01 11.54 55.45 12.88 54.10 12.88C53.42 12.88 53.12 12.52 53.12 11.56L53.12 7.22L52.00 7.22ZM59.49 13.65L60.61 13.65L60.61 10.37C60.77 9.41 61.24 8.08 62.19 8.08C62.59 8.08 62.83 8.48 62.83 8.48L63.45 7.60C63.45 7.60 63.13 7.03 62.40 7.03C61.38 7.03 60.79 7.85 60.56 8.47L60.56 7.22L59.49 7.22ZM69.68 10.61L69.68 9.91C69.68 7.95 68.77 7.03 67.07 7.03C64.83 7.03 64.11 8.75 64.11 10.47C64.11 12.78 65.20 13.85 67.10 13.85C68.52 13.85 69.36 13.16 69.68 12.01L68.70 11.82C68.52 12.40 67.97 12.92 67.13 12.92C65.66 12.92 65.32 11.80 65.31 10.61ZM67.05 7.95C68.05 7.95 68.52 8.61 68.52 9.46L68.52 9.72L65.35 9.72C65.52 8.50 66.15 7.95 67.05 7.95ZM73.67 5.47L76.87 5.47L76.87 13.65L78.09 13.65L78.09 5.47L81.30 5.47L81.30 4.40L73.67 4.40ZM86.23 10.61L86.23 9.91C86.23 7.95 85.32 7.03 83.62 7.03C81.38 7.03 80.65 8.75 80.65 10.47C80.65 12.78 81.75 13.85 83.65 13.85C85.06 13.85 85.90 13.16 86.23 12.01L85.25 11.82C85.06 12.40 84.52 12.92 83.68 12.92C82.21 12.92 81.87 11.80 81.86 10.61ZM83.59 7.95C84.60 7.95 85.06 8.61 85.06 9.46L85.06 9.72L81.90 9.72C82.07 8.50 82.70 7.95 83.59 7.95ZM91.95 11.82C91.81 12.43 91.28 12.92 90.41 12.92C89.52 12.92 88.82 12.24 88.82 10.44C88.82 9.17 89.19 7.95 90.48 7.95C91.28 7.95 91.85 8.22 91.78 9.24L92.90 9.04C93.04 7.73 91.99 7.03 90.48 7.03C88.97 7.03 87.61 7.87 87.61 10.42C87.61 12.57 88.59 13.85 90.40 13.85C91.85 13.85 92.62 13.13 92.95 12.01ZM98.83 13.65L99.95 13.65L99.95 9.00C99.95 7.63 99.09 7.03 98.00 7.03C96.59 7.03 95.96 7.92 95.73 8.40L95.73 3.60L94.61 3.60L94.61 13.65L95.73 13.65L95.73 10.22C95.86 9.65 96.38 7.99 97.82 7.99C98.49 7.99 98.83 8.36 98.83 9.32ZM102.05 13.65L103.17 13.65L103.17 10.22C103.29 9.65 103.81 7.99 105.25 7.99C105.92 7.99 106.26 8.36 106.26 9.32L106.26 13.65L107.38 13.65L107.38 9.00C107.38 7.63 106.53 7.03 105.43 7.03C103.92 7.03 103.32 8.06 103.12 8.50L103.12 7.22L102.05 7.22ZM112.08 13.85C114.17 13.85 115.05 12.32 115.05 10.33C115.05 8.25 114.06 7.03 112.08 7.03C110.04 7.03 109.09 8.44 109.09 10.33C109.09 12.47 109.97 13.85 112.08 13.85ZM112.08 12.92C110.92 12.92 110.29 12.08 110.29 10.47C110.29 8.88 110.92 7.95 112.08 7.95C113.23 7.95 113.85 8.85 113.85 10.47C113.85 11.96 113.23 12.92 112.08 12.92ZM116.82 13.65L117.94 13.65L117.94 3.60L116.82 3.60ZM122.70 13.85C124.78 13.85 125.66 12.32 125.66 10.33C125.66 8.25 124.67 7.03 122.70 7.03C120.65 7.03 119.70 8.44 119.70 10.33C119.70 12.47 120.58 13.85 122.70 13.85ZM122.70 12.92C121.53 12.92 120.90 12.08 120.90 10.47C120.90 8.88 121.53 7.95 122.70 7.95C123.84 7.95 124.46 8.85 124.46 10.47C124.46 11.96 123.84 12.92 122.70 12.92ZM127.44 9.48C127.44 10.15 127.62 10.70 127.97 11.09C127.46 11.45 127.12 11.87 127.12 12.52C127.12 13.29 127.60 13.58 128.14 13.78C127.75 14.04 127.12 14.56 127.12 15.37C127.12 16.76 128.94 17.04 130.10 17.04C131.84 17.04 133.20 16.41 133.20 14.88C133.20 13.27 131.67 13.09 130.30 13.01C129.16 12.94 128.13 12.92 128.13 12.25C128.13 11.96 128.31 11.75 128.59 11.55C128.97 11.73 129.43 11.83 129.98 11.83C131.60 11.83 132.59 10.98 132.59 9.42C132.59 8.97 132.51 8.58 132.34 8.25C132.99 7.94 133.29 7.43 133.29 6.80C133.29 6.66 133.28 6.51 133.24 6.34L132.27 6.20L132.27 6.69C132.27 7.04 132.17 7.39 131.91 7.67C131.46 7.25 130.83 7.03 130.03 7.03C128.34 7.03 127.44 8.01 127.44 9.48ZM129.99 10.98C129.02 10.98 128.65 10.42 128.65 9.45C128.65 8.46 129.05 7.88 130.02 7.88C130.97 7.88 131.39 8.44 131.39 9.42C131.39 10.42 130.97 10.98 129.99 10.98ZM130.14 14.06C131.24 14.13 132.15 14.28 132.15 15.05C132.15 15.85 131.21 16.14 130.09 16.14C129.25 16.14 128.13 15.97 128.13 15.16C128.13 14.60 128.63 14.24 129.08 13.99C129.49 14.03 129.68 14.03 130.14 14.06ZM133.83 16.58C134.09 16.79 134.53 17.04 135.18 17.04C136.82 17.04 137.24 15.57 137.37 14.73L137.54 13.52L140.04 7.22L138.94 7.22L137.41 11.19C137.28 11.49 137.16 11.89 137.06 12.18C136.96 11.89 136.81 11.47 136.70 11.19L135.06 7.22L133.84 7.22L136.53 13.52L136.40 14.50C136.28 15.57 135.74 16.11 135.21 16.11C134.89 16.11 134.58 15.96 134.36 15.75Z"></path></g><!----><!----></svg>